<?xml version="1.0" encoding="UTF-8" standalone="no"?>
<!DOCTYPE svg PUBLIC "-//W3C//DTD SVG 1.1//EN"
 "http://www.w3.org/Graphics/SVG/1.1/DTD/svg11.dtd">
<!-- Generated by graphviz version 2.40.1 (20161225.0304)
 -->
<!-- Title: d Pages: 1 -->
<svg width="1509pt" height="188pt"
 viewBox="0.00 0.00 1508.52 188.00" xmlns="http://www.w3.org/2000/svg" xmlns:xlink="http://www.w3.org/1999/xlink">
<g id="graph0" class="graph" transform="scale(1 1) rotate(0) translate(4 184)">
<title>d</title>
<polygon fill="#ffffff" stroke="transparent" points="-4,4 -4,-184 1504.518,-184 1504.518,4 -4,4"/>
<!-- datatypes -->
<g id="node1" class="node">
<title>datatypes</title>
<ellipse fill="none" stroke="#000000" cx="255.6045" cy="-162" rx="43.506" ry="18"/>
<text text-anchor="middle" x="255.6045" y="-157.8" font-family="Times,serif" font-size="14.00" fill="#000000">datatypes</text>
</g>
<!-- numeric -->
<g id="node2" class="node">
<title>numeric</title>
<ellipse fill="none" stroke="#000000" cx="142.6045" cy="-90" rx="39.1627" ry="18"/>
<text text-anchor="middle" x="142.6045" y="-85.8" font-family="Times,serif" font-size="14.00" fill="#000000">numeric</text>
</g>
<!-- datatypes&#45;&gt;numeric -->
<g id="edge1" class="edge">
<title>datatypes&#45;&gt;numeric</title>
<path fill="none" stroke="#000000" d="M231.6401,-146.7307C214.9376,-136.0884 192.4806,-121.7795 174.2994,-110.195"/>
<polygon fill="#000000" stroke="#000000" points="176.0758,-107.1768 165.7615,-104.7549 172.3142,-113.0803 176.0758,-107.1768"/>
</g>
<!-- categorical -->
<g id="node3" class="node">
<title>categorical</title>
<ellipse fill="none" stroke="#000000" cx="365.6045" cy="-90" rx="48.7842" ry="18"/>
<text text-anchor="middle" x="365.6045" y="-85.8" font-family="Times,serif" font-size="14.00" fill="#000000">categorical</text>
</g>
<!-- datatypes&#45;&gt;categorical -->
<g id="edge2" class="edge">
<title>datatypes&#45;&gt;categorical</title>
<path fill="none" stroke="#000000" d="M278.9326,-146.7307C294.6143,-136.4663 315.5067,-122.7912 332.85,-111.4393"/>
<polygon fill="#000000" stroke="#000000" points="335.0993,-114.1502 341.5495,-105.7451 331.2656,-108.2933 335.0993,-114.1502"/>
</g>
<!-- discrete -->
<g id="node4" class="node">
<title>discrete</title>
<ellipse fill="none" stroke="#000000" cx="37.6045" cy="-18" rx="37.7092" ry="18"/>
<text text-anchor="middle" x="37.6045" y="-13.8" font-family="Times,serif" font-size="14.00" fill="#000000">discrete</text>
</g>
<!-- numeric&#45;&gt;discrete -->
<g id="edge3" class="edge">
<title>numeric&#45;&gt;discrete</title>
<path fill="none" stroke="#000000" d="M120.593,-74.9064C105.2303,-64.372 84.5373,-50.1825 67.658,-38.6081"/>
<polygon fill="#000000" stroke="#000000" points="69.4539,-35.5958 59.2273,-32.8271 65.4952,-41.3689 69.4539,-35.5958"/>
</g>
<!-- continuous -->
<g id="node5" class="node">
<title>continuous</title>
<ellipse fill="none" stroke="#000000" cx="142.6045" cy="-18" rx="48.8359" ry="18"/>
<text text-anchor="middle" x="142.6045" y="-13.8" font-family="Times,serif" font-size="14.00" fill="#000000">continuous</text>
</g>
<!-- numeric&#45;&gt;continuous -->
<g id="edge4" class="edge">
<title>numeric&#45;&gt;continuous</title>
<path fill="none" stroke="#000000" d="M142.6045,-71.8314C142.6045,-64.131 142.6045,-54.9743 142.6045,-46.4166"/>
<polygon fill="#000000" stroke="#000000" points="146.1046,-46.4132 142.6045,-36.4133 139.1046,-46.4133 146.1046,-46.4132"/>
</g>
<!-- ordinal -->
<g id="node6" class="node">
<title>ordinal</title>
<ellipse fill="none" stroke="#000000" cx="368.6045" cy="-18" rx="35.3129" ry="18"/>
<text text-anchor="middle" x="368.6045" y="-13.8" font-family="Times,serif" font-size="14.00" fill="#000000">ordinal</text>
</g>
<!-- categorical&#45;&gt;ordinal -->
<g id="edge5" class="edge">
<title>categorical&#45;&gt;ordinal</title>
<path fill="none" stroke="#000000" d="M366.3615,-71.8314C366.6823,-64.131 367.0639,-54.9743 367.4204,-46.4166"/>
<polygon fill="#000000" stroke="#000000" points="370.9178,-46.5503 367.8373,-36.4133 363.9239,-46.2589 370.9178,-46.5503"/>
</g>
<!-- proportionbinomial -->
<g id="node7" class="node">
<title>proportionbinomial</title>
<ellipse fill="none" stroke="#000000" cx="519.6045" cy="-18" rx="78.7625" ry="18"/>
<text text-anchor="middle" x="519.6045" y="-13.8" font-family="Times,serif" font-size="14.00" fill="#000000">proportionbinomial</text>
</g>
<!-- categorical&#45;&gt;proportionbinomial -->
<g id="edge6" class="edge">
<title>categorical&#45;&gt;proportionbinomial</title>
<path fill="none" stroke="#000000" d="M396.0299,-75.7751C418.8262,-65.1171 450.3464,-50.3804 475.8467,-38.4582"/>
<polygon fill="#000000" stroke="#000000" points="477.3654,-41.6118 484.9419,-34.2059 474.4007,-35.2706 477.3654,-41.6118"/>
</g>
<!-- multinomial -->
<g id="node8" class="node">
<title>multinomial</title>
<ellipse fill="none" stroke="#000000" cx="262.6045" cy="-18" rx="53.1797" ry="18"/>
<text text-anchor="middle" x="262.6045" y="-13.8" font-family="Times,serif" font-size="14.00" fill="#000000">multinomial</text>
</g>
<!-- categorical&#45;&gt;multinomial -->
<g id="edge7" class="edge">
<title>categorical&#45;&gt;multinomial</title>
<path fill="none" stroke="#000000" d="M342.7454,-74.0209C328.5436,-64.0934 310.0811,-51.1875 294.4568,-40.2657"/>
<polygon fill="#000000" stroke="#000000" points="296.315,-37.2943 286.1137,-34.4336 292.3045,-43.0316 296.315,-37.2943"/>
</g>
<!-- inference -->
<g id="node9" class="node">
<title>inference</title>
<ellipse fill="none" stroke="#000000" cx="928.6045" cy="-162" rx="42.9956" ry="18"/>
<text text-anchor="middle" x="928.6045" y="-157.8" font-family="Times,serif" font-size="14.00" fill="#000000">inference</text>
</g>
<!-- confidenceinterval -->
<g id="node10" class="node">
<title>confidenceinterval</title>
<ellipse fill="none" stroke="#000000" cx="851.6045" cy="-90" rx="75.3448" ry="18"/>
<text text-anchor="middle" x="851.6045" y="-85.8" font-family="Times,serif" font-size="14.00" fill="#000000">confidenceinterval</text>
</g>
<!-- inference&#45;&gt;confidenceinterval -->
<g id="edge8" class="edge">
<title>inference&#45;&gt;confidenceinterval</title>
<path fill="none" stroke="#000000" d="M910.7456,-145.3008C901.0216,-136.2083 888.8036,-124.7836 878.0008,-114.6823"/>
<polygon fill="#000000" stroke="#000000" points="880.1355,-111.8867 870.4408,-107.6132 875.3546,-116.9996 880.1355,-111.8867"/>
</g>
<!-- hypothesistest -->
<g id="node11" class="node">
<title>hypothesistest</title>
<ellipse fill="none" stroke="#000000" cx="1005.6045" cy="-90" rx="60.4375" ry="18"/>
<text text-anchor="middle" x="1005.6045" y="-85.8" font-family="Times,serif" font-size="14.00" fill="#000000">hypothesistest</text>
</g>
<!-- inference&#45;&gt;hypothesistest -->
<g id="edge9" class="edge">
<title>inference&#45;&gt;hypothesistest</title>
<path fill="none" stroke="#000000" d="M946.4634,-145.3008C956.2588,-136.1414 968.5852,-124.6154 979.4462,-114.4597"/>
<polygon fill="#000000" stroke="#000000" points="982.1248,-116.7468 987.0385,-107.3603 977.3438,-111.6338 982.1248,-116.7468"/>
</g>
<!-- onesided -->
<g id="node20" class="node">
<title>onesided</title>
<ellipse fill="none" stroke="#000000" cx="954.6045" cy="-18" rx="41.5852" ry="18"/>
<text text-anchor="middle" x="954.6045" y="-13.8" font-family="Times,serif" font-size="14.00" fill="#000000">onesided</text>
</g>
<!-- hypothesistest&#45;&gt;onesided -->
<g id="edge17" class="edge">
<title>hypothesistest&#45;&gt;onesided</title>
<path fill="none" stroke="#000000" d="M992.9977,-72.2022C986.9001,-63.5938 979.4677,-53.1011 972.7724,-43.6488"/>
<polygon fill="#000000" stroke="#000000" points="975.5265,-41.4818 966.8902,-35.3446 969.8143,-45.5279 975.5265,-41.4818"/>
</g>
<!-- twosided -->
<g id="node21" class="node">
<title>twosided</title>
<ellipse fill="none" stroke="#000000" cx="1056.6045" cy="-18" rx="42.0784" ry="18"/>
<text text-anchor="middle" x="1056.6045" y="-13.8" font-family="Times,serif" font-size="14.00" fill="#000000">twosided</text>
</g>
<!-- hypothesistest&#45;&gt;twosided -->
<g id="edge18" class="edge">
<title>hypothesistest&#45;&gt;twosided</title>
<path fill="none" stroke="#000000" d="M1018.2112,-72.2022C1024.3088,-63.5938 1031.7412,-53.1011 1038.4366,-43.6488"/>
<polygon fill="#000000" stroke="#000000" points="1041.3946,-45.5279 1044.3187,-35.3446 1035.6824,-41.4818 1041.3946,-45.5279"/>
</g>
<!-- inferencetypes -->
<g id="node12" class="node">
<title>inferencetypes</title>
<ellipse fill="none" stroke="#000000" cx="590.6045" cy="-162" rx="61.8303" ry="18"/>
<text text-anchor="middle" x="590.6045" y="-157.8" font-family="Times,serif" font-size="14.00" fill="#000000">inferencetypes</text>
</g>
<!-- numericinference -->
<g id="node13" class="node">
<title>numericinference</title>
<ellipse fill="none" stroke="#000000" cx="504.6045" cy="-90" rx="71.9445" ry="18"/>
<text text-anchor="middle" x="504.6045" y="-85.8" font-family="Times,serif" font-size="14.00" fill="#000000">numericinference</text>
</g>
<!-- inferencetypes&#45;&gt;numericinference -->
<g id="edge10" class="edge">
<title>inferencetypes&#45;&gt;numericinference</title>
<path fill="none" stroke="#000000" d="M570.2237,-144.937C559.1409,-135.6584 545.2557,-124.0336 533.1154,-113.8696"/>
<polygon fill="#000000" stroke="#000000" points="535.3508,-111.1764 525.4364,-107.4407 530.8572,-116.5437 535.3508,-111.1764"/>
</g>
<!-- categoricalinference -->
<g id="node14" class="node">
<title>categoricalinference</title>
<ellipse fill="none" stroke="#000000" cx="676.6045" cy="-90" rx="81.5665" ry="18"/>
<text text-anchor="middle" x="676.6045" y="-85.8" font-family="Times,serif" font-size="14.00" fill="#000000">categoricalinference</text>
</g>
<!-- inferencetypes&#45;&gt;categoricalinference -->
<g id="edge11" class="edge">
<title>inferencetypes&#45;&gt;categoricalinference</title>
<path fill="none" stroke="#000000" d="M610.9853,-144.937C622.068,-135.6584 635.9532,-124.0336 648.0936,-113.8696"/>
<polygon fill="#000000" stroke="#000000" points="650.3517,-116.5437 655.7726,-107.4407 645.8582,-111.1764 650.3517,-116.5437"/>
</g>
<!-- categoricalinference&#45;&gt;proportionbinomial -->
<g id="edge12" class="edge">
<title>categoricalinference&#45;&gt;proportionbinomial</title>
<path fill="none" stroke="#000000" d="M640.9787,-73.6621C618.2159,-63.2231 588.515,-49.6023 564.1917,-38.4476"/>
<polygon fill="#000000" stroke="#000000" points="565.3672,-35.1363 554.8185,-34.1491 562.4492,-41.4991 565.3672,-35.1363"/>
</g>
<!-- chiquared -->
<g id="node15" class="node">
<title>chiquared</title>
<ellipse fill="none" stroke="#000000" cx="676.6045" cy="-18" rx="44.9423" ry="18"/>
<text text-anchor="middle" x="676.6045" y="-13.8" font-family="Times,serif" font-size="14.00" fill="#000000">chiquared</text>
</g>
<!-- categoricalinference&#45;&gt;chiquared -->
<g id="edge13" class="edge">
<title>categoricalinference&#45;&gt;chiquared</title>
<path fill="none" stroke="#000000" d="M676.6045,-71.8314C676.6045,-64.131 676.6045,-54.9743 676.6045,-46.4166"/>
<polygon fill="#000000" stroke="#000000" points="680.1046,-46.4132 676.6045,-36.4133 673.1046,-46.4133 680.1046,-46.4132"/>
</g>
<!-- chisquared -->
<g id="node16" class="node">
<title>chisquared</title>
<ellipse fill="none" stroke="#000000" cx="250.6045" cy="-90" rx="48.3255" ry="18"/>
<text text-anchor="middle" x="250.6045" y="-85.8" font-family="Times,serif" font-size="14.00" fill="#000000">chisquared</text>
</g>
<!-- chisquared&#45;&gt;multinomial -->
<g id="edge14" class="edge">
<title>chisquared&#45;&gt;multinomial</title>
<path fill="none" stroke="#000000" d="M253.6326,-71.8314C254.916,-64.131 256.4421,-54.9743 257.8684,-46.4166"/>
<polygon fill="#000000" stroke="#000000" points="261.3439,-46.8526 259.5356,-36.4133 254.4391,-45.7018 261.3439,-46.8526"/>
</g>
<!-- numbericinference -->
<g id="node17" class="node">
<title>numbericinference</title>
<ellipse fill="none" stroke="#000000" cx="1196.6045" cy="-162" rx="76.2881" ry="18"/>
<text text-anchor="middle" x="1196.6045" y="-157.8" font-family="Times,serif" font-size="14.00" fill="#000000">numbericinference</text>
</g>
<!-- normaldistribution -->
<g id="node18" class="node">
<title>normaldistribution</title>
<ellipse fill="none" stroke="#000000" cx="1159.6045" cy="-90" rx="75.8725" ry="18"/>
<text text-anchor="middle" x="1159.6045" y="-85.8" font-family="Times,serif" font-size="14.00" fill="#000000">normaldistribution</text>
</g>
<!-- numbericinference&#45;&gt;normaldistribution -->
<g id="edge15" class="edge">
<title>numbericinference&#45;&gt;normaldistribution</title>
<path fill="none" stroke="#000000" d="M1187.2678,-143.8314C1183.0732,-135.6688 1178.0377,-125.87 1173.4192,-116.8827"/>
<polygon fill="#000000" stroke="#000000" points="1176.4937,-115.208 1168.81,-107.9134 1170.2677,-118.4075 1176.4937,-115.208"/>
</g>
<!-- tdistribution -->
<g id="node19" class="node">
<title>tdistribution</title>
<ellipse fill="none" stroke="#000000" cx="1306.6045" cy="-90" rx="53.1883" ry="18"/>
<text text-anchor="middle" x="1306.6045" y="-85.8" font-family="Times,serif" font-size="14.00" fill="#000000">tdistribution</text>
</g>
<!-- numbericinference&#45;&gt;tdistribution -->
<g id="edge16" class="edge">
<title>numbericinference&#45;&gt;tdistribution</title>
<path fill="none" stroke="#000000" d="M1222.6729,-144.937C1237.7896,-135.0424 1256.9826,-122.4798 1273.1985,-111.8657"/>
<polygon fill="#000000" stroke="#000000" points="1275.406,-114.604 1281.8562,-106.1989 1271.5724,-108.747 1275.406,-114.604"/>
</g>
<!-- stats -->
<g id="node22" class="node">
<title>stats</title>
<ellipse fill="none" stroke="#000000" cx="1404.6045" cy="-90" rx="27" ry="18"/>
<text text-anchor="middle" x="1404.6045" y="-85.8" font-family="Times,serif" font-size="14.00" fill="#000000">stats</text>
</g>
<!-- scientificmethod -->
<g id="node23" class="node">
<title>scientificmethod</title>
<ellipse fill="none" stroke="#000000" cx="1404.6045" cy="-18" rx="68.6219" ry="18"/>
<text text-anchor="middle" x="1404.6045" y="-13.8" font-family="Times,serif" font-size="14.00" fill="#000000">scientificmethod</text>
</g>
<!-- stats&#45;&gt;scientificmethod -->
<g id="edge19" class="edge">
<title>stats&#45;&gt;scientificmethod</title>
<path fill="none" stroke="#000000" d="M1404.6045,-61.5726C1404.6045,-56.6792 1404.6045,-51.5904 1404.6045,-46.6901"/>
<polygon fill="#000000" stroke="#000000" points="1401.1046,-61.8313 1404.6045,-71.8314 1408.1046,-61.8314 1401.1046,-61.8313"/>
<polygon fill="#000000" stroke="#000000" points="1408.1046,-46.4132 1404.6045,-36.4133 1401.1046,-46.4133 1408.1046,-46.4132"/>
</g>
<!-- logic -->
<g id="node24" class="node">
<title>logic</title>
<ellipse fill="none" stroke="#000000" cx="1356.6045" cy="-162" rx="27.5804" ry="18"/>
<text text-anchor="middle" x="1356.6045" y="-157.8" font-family="Times,serif" font-size="14.00" fill="#000000">logic</text>
</g>
<!-- logic&#45;&gt;stats -->
<g id="edge20" class="edge">
<title>logic&#45;&gt;stats</title>
<path fill="none" stroke="#000000" d="M1367.7373,-145.3008C1373.7349,-136.3043 1381.2547,-125.0247 1387.9359,-115.0029"/>
<polygon fill="#000000" stroke="#000000" points="1390.8972,-116.8706 1393.532,-106.6087 1385.0728,-112.9877 1390.8972,-116.8706"/>
</g>
<!-- probability -->
<g id="node25" class="node">
<title>probability</title>
<ellipse fill="none" stroke="#000000" cx="1451.6045" cy="-162" rx="48.8273" ry="18"/>
<text text-anchor="middle" x="1451.6045" y="-157.8" font-family="Times,serif" font-size="14.00" fill="#000000">probability</text>
</g>
<!-- probability&#45;&gt;stats -->
<g id="edge21" class="edge">
<title>probability&#45;&gt;stats</title>
<path fill="none" stroke="#000000" d="M1439.9865,-144.2022C1434.2422,-135.4025 1427.2126,-124.6338 1420.9371,-115.0202"/>
<polygon fill="#000000" stroke="#000000" points="1423.8415,-113.0664 1415.4444,-106.6058 1417.9798,-116.8928 1423.8415,-113.0664"/>
</g>
</g>
</svg>
