<?xml version="1.0" encoding="UTF-8" standalone="no"?>
<!DOCTYPE svg PUBLIC "-//W3C//DTD SVG 1.1//EN"
 "http://www.w3.org/Graphics/SVG/1.1/DTD/svg11.dtd">
<!-- Generated by graphviz version 2.40.1 (20161225.0304)
 -->
<!-- Title: d Pages: 1 -->
<svg width="2207pt" height="188pt"
 viewBox="0.00 0.00 2206.83 188.00" xmlns="http://www.w3.org/2000/svg" xmlns:xlink="http://www.w3.org/1999/xlink">
<g id="graph0" class="graph" transform="scale(1 1) rotate(0) translate(4 184)">
<title>d</title>
<polygon fill="#ffffff" stroke="transparent" points="-4,4 -4,-184 2202.8315,-184 2202.8315,4 -4,4"/>
<!-- datatypes -->
<g id="node1" class="node">
<title>datatypes</title>
<ellipse fill="none" stroke="#000000" cx="225.9179" cy="-162" rx="43.506" ry="18"/>
<text text-anchor="middle" x="225.9179" y="-157.8" font-family="Times,serif" font-size="14.00" fill="#000000">datatypes</text>
</g>
<!-- numeric -->
<g id="node2" class="node">
<title>numeric</title>
<ellipse fill="none" stroke="#000000" cx="153.9179" cy="-90" rx="39.1627" ry="18"/>
<text text-anchor="middle" x="153.9179" y="-85.8" font-family="Times,serif" font-size="14.00" fill="#000000">numeric</text>
</g>
<!-- datatypes&#45;&gt;numeric -->
<g id="edge1" class="edge">
<title>datatypes&#45;&gt;numeric</title>
<path fill="none" stroke="#000000" d="M209.2187,-145.3008C199.8587,-135.9408 188.0274,-124.1095 177.7124,-113.7945"/>
<polygon fill="#000000" stroke="#000000" points="180.0725,-111.2049 170.5265,-106.6087 175.1228,-116.1546 180.0725,-111.2049"/>
</g>
<!-- categorical -->
<g id="node3" class="node">
<title>categorical</title>
<ellipse fill="none" stroke="#000000" cx="314.9179" cy="-90" rx="48.7842" ry="18"/>
<text text-anchor="middle" x="314.9179" y="-85.8" font-family="Times,serif" font-size="14.00" fill="#000000">categorical</text>
</g>
<!-- datatypes&#45;&gt;categorical -->
<g id="edge2" class="edge">
<title>datatypes&#45;&gt;categorical</title>
<path fill="none" stroke="#000000" d="M246.1134,-145.6621C258.0904,-135.9728 273.4558,-123.5424 286.6269,-112.8871"/>
<polygon fill="#000000" stroke="#000000" points="288.9211,-115.5331 294.4943,-106.5225 284.5184,-110.0909 288.9211,-115.5331"/>
</g>
<!-- discrete -->
<g id="node4" class="node">
<title>discrete</title>
<ellipse fill="none" stroke="#000000" cx="153.9179" cy="-18" rx="37.7092" ry="18"/>
<text text-anchor="middle" x="153.9179" y="-13.8" font-family="Times,serif" font-size="14.00" fill="#000000">discrete</text>
</g>
<!-- numeric&#45;&gt;discrete -->
<g id="edge3" class="edge">
<title>numeric&#45;&gt;discrete</title>
<path fill="none" stroke="#000000" d="M153.9179,-71.8314C153.9179,-64.131 153.9179,-54.9743 153.9179,-46.4166"/>
<polygon fill="#000000" stroke="#000000" points="157.418,-46.4132 153.9179,-36.4133 150.418,-46.4133 157.418,-46.4132"/>
</g>
<!-- continuous -->
<g id="node5" class="node">
<title>continuous</title>
<ellipse fill="none" stroke="#000000" cx="48.9179" cy="-18" rx="48.8359" ry="18"/>
<text text-anchor="middle" x="48.9179" y="-13.8" font-family="Times,serif" font-size="14.00" fill="#000000">continuous</text>
</g>
<!-- numeric&#45;&gt;continuous -->
<g id="edge4" class="edge">
<title>numeric&#45;&gt;continuous</title>
<path fill="none" stroke="#000000" d="M131.9064,-74.9064C117.0558,-64.7231 97.2243,-51.1244 80.6717,-39.7741"/>
<polygon fill="#000000" stroke="#000000" points="82.5851,-36.8423 72.3584,-34.0735 78.6263,-42.6154 82.5851,-36.8423"/>
</g>
<!-- ordinal -->
<g id="node6" class="node">
<title>ordinal</title>
<ellipse fill="none" stroke="#000000" cx="244.9179" cy="-18" rx="35.3129" ry="18"/>
<text text-anchor="middle" x="244.9179" y="-13.8" font-family="Times,serif" font-size="14.00" fill="#000000">ordinal</text>
</g>
<!-- categorical&#45;&gt;ordinal -->
<g id="edge5" class="edge">
<title>categorical&#45;&gt;ordinal</title>
<path fill="none" stroke="#000000" d="M298.3289,-72.937C289.308,-63.6584 278.0061,-52.0336 268.1244,-41.8696"/>
<polygon fill="#000000" stroke="#000000" points="270.3863,-39.1751 260.906,-34.4449 265.3673,-44.0547 270.3863,-39.1751"/>
</g>
<!-- proportionbinomial -->
<g id="node7" class="node">
<title>proportionbinomial</title>
<ellipse fill="none" stroke="#000000" cx="376.9179" cy="-18" rx="78.7625" ry="18"/>
<text text-anchor="middle" x="376.9179" y="-13.8" font-family="Times,serif" font-size="14.00" fill="#000000">proportionbinomial</text>
</g>
<!-- categorical&#45;&gt;proportionbinomial -->
<g id="edge6" class="edge">
<title>categorical&#45;&gt;proportionbinomial</title>
<path fill="none" stroke="#000000" d="M329.9264,-72.5708C337.4299,-63.857 346.6549,-53.1441 354.9385,-43.5244"/>
<polygon fill="#000000" stroke="#000000" points="357.7438,-45.6304 361.6169,-35.7689 352.4394,-41.0627 357.7438,-45.6304"/>
</g>
<!-- multinomial -->
<g id="node8" class="node">
<title>multinomial</title>
<ellipse fill="none" stroke="#000000" cx="794.9179" cy="-18" rx="53.1797" ry="18"/>
<text text-anchor="middle" x="794.9179" y="-13.8" font-family="Times,serif" font-size="14.00" fill="#000000">multinomial</text>
</g>
<!-- categorical&#45;&gt;multinomial -->
<g id="edge7" class="edge">
<title>categorical&#45;&gt;multinomial</title>
<path fill="none" stroke="#000000" d="M357.8481,-81.0438C373.833,-77.9033 392.1597,-74.5315 408.9179,-72 552.1787,-50.3588 590.8229,-64.3023 732.9179,-36 737.3028,-35.1266 741.8266,-34.0884 746.3395,-32.9578"/>
<polygon fill="#000000" stroke="#000000" points="747.3716,-36.3053 756.1436,-30.3637 745.581,-29.5382 747.3716,-36.3053"/>
</g>
<!-- inference -->
<g id="node9" class="node">
<title>inference</title>
<ellipse fill="none" stroke="#000000" cx="1841.9179" cy="-162" rx="42.9956" ry="18"/>
<text text-anchor="middle" x="1841.9179" y="-157.8" font-family="Times,serif" font-size="14.00" fill="#000000">inference</text>
</g>
<!-- confidenceinterval -->
<g id="node10" class="node">
<title>confidenceinterval</title>
<ellipse fill="none" stroke="#000000" cx="1768.9179" cy="-90" rx="75.3448" ry="18"/>
<text text-anchor="middle" x="1768.9179" y="-85.8" font-family="Times,serif" font-size="14.00" fill="#000000">confidenceinterval</text>
</g>
<!-- inference&#45;&gt;confidenceinterval -->
<g id="edge8" class="edge">
<title>inference&#45;&gt;confidenceinterval</title>
<path fill="none" stroke="#000000" d="M1824.9867,-145.3008C1815.7679,-136.2083 1804.1846,-124.7836 1793.943,-114.6823"/>
<polygon fill="#000000" stroke="#000000" points="1796.3532,-112.1435 1786.7757,-107.6132 1791.4376,-117.1272 1796.3532,-112.1435"/>
</g>
<!-- hypothesistest -->
<g id="node11" class="node">
<title>hypothesistest</title>
<ellipse fill="none" stroke="#000000" cx="1922.9179" cy="-90" rx="60.4375" ry="18"/>
<text text-anchor="middle" x="1922.9179" y="-85.8" font-family="Times,serif" font-size="14.00" fill="#000000">hypothesistest</text>
</g>
<!-- inference&#45;&gt;hypothesistest -->
<g id="edge9" class="edge">
<title>inference&#45;&gt;hypothesistest</title>
<path fill="none" stroke="#000000" d="M1860.298,-145.6621C1870.7653,-136.3579 1884.076,-124.5261 1895.7315,-114.1657"/>
<polygon fill="#000000" stroke="#000000" points="1898.3321,-116.5369 1903.481,-107.2773 1893.6816,-111.305 1898.3321,-116.5369"/>
</g>
<!-- onesided -->
<g id="node20" class="node">
<title>onesided</title>
<ellipse fill="none" stroke="#000000" cx="1871.9179" cy="-18" rx="41.5852" ry="18"/>
<text text-anchor="middle" x="1871.9179" y="-13.8" font-family="Times,serif" font-size="14.00" fill="#000000">onesided</text>
</g>
<!-- hypothesistest&#45;&gt;onesided -->
<g id="edge18" class="edge">
<title>hypothesistest&#45;&gt;onesided</title>
<path fill="none" stroke="#000000" d="M1910.3111,-72.2022C1904.2135,-63.5938 1896.7811,-53.1011 1890.0858,-43.6488"/>
<polygon fill="#000000" stroke="#000000" points="1892.8399,-41.4818 1884.2036,-35.3446 1887.1278,-45.5279 1892.8399,-41.4818"/>
</g>
<!-- twosided -->
<g id="node21" class="node">
<title>twosided</title>
<ellipse fill="none" stroke="#000000" cx="1973.9179" cy="-18" rx="42.0784" ry="18"/>
<text text-anchor="middle" x="1973.9179" y="-13.8" font-family="Times,serif" font-size="14.00" fill="#000000">twosided</text>
</g>
<!-- hypothesistest&#45;&gt;twosided -->
<g id="edge19" class="edge">
<title>hypothesistest&#45;&gt;twosided</title>
<path fill="none" stroke="#000000" d="M1935.5246,-72.2022C1941.6223,-63.5938 1949.0546,-53.1011 1955.75,-43.6488"/>
<polygon fill="#000000" stroke="#000000" points="1958.708,-45.5279 1961.6321,-35.3446 1952.9958,-41.4818 1958.708,-45.5279"/>
</g>
<!-- inferencetypes -->
<g id="node12" class="node">
<title>inferencetypes</title>
<ellipse fill="none" stroke="#000000" cx="585.9179" cy="-162" rx="61.8303" ry="18"/>
<text text-anchor="middle" x="585.9179" y="-157.8" font-family="Times,serif" font-size="14.00" fill="#000000">inferencetypes</text>
</g>
<!-- numericinference -->
<g id="node13" class="node">
<title>numericinference</title>
<ellipse fill="none" stroke="#000000" cx="671.9179" cy="-90" rx="71.9445" ry="18"/>
<text text-anchor="middle" x="671.9179" y="-85.8" font-family="Times,serif" font-size="14.00" fill="#000000">numericinference</text>
</g>
<!-- inferencetypes&#45;&gt;numericinference -->
<g id="edge10" class="edge">
<title>inferencetypes&#45;&gt;numericinference</title>
<path fill="none" stroke="#000000" d="M606.2987,-144.937C617.3815,-135.6584 631.2667,-124.0336 643.407,-113.8696"/>
<polygon fill="#000000" stroke="#000000" points="645.6652,-116.5437 651.086,-107.4407 641.1716,-111.1764 645.6652,-116.5437"/>
</g>
<!-- categoricalinference -->
<g id="node14" class="node">
<title>categoricalinference</title>
<ellipse fill="none" stroke="#000000" cx="499.9179" cy="-90" rx="81.5665" ry="18"/>
<text text-anchor="middle" x="499.9179" y="-85.8" font-family="Times,serif" font-size="14.00" fill="#000000">categoricalinference</text>
</g>
<!-- inferencetypes&#45;&gt;categoricalinference -->
<g id="edge11" class="edge">
<title>inferencetypes&#45;&gt;categoricalinference</title>
<path fill="none" stroke="#000000" d="M565.5371,-144.937C554.4543,-135.6584 540.5691,-124.0336 528.4288,-113.8696"/>
<polygon fill="#000000" stroke="#000000" points="530.6642,-111.1764 520.7498,-107.4407 526.1706,-116.5437 530.6642,-111.1764"/>
</g>
<!-- singlesamplettest -->
<g id="node17" class="node">
<title>singlesamplettest</title>
<ellipse fill="none" stroke="#000000" cx="652.9179" cy="-18" rx="71.0358" ry="18"/>
<text text-anchor="middle" x="652.9179" y="-13.8" font-family="Times,serif" font-size="14.00" fill="#000000">singlesamplettest</text>
</g>
<!-- numericinference&#45;&gt;singlesamplettest -->
<g id="edge15" class="edge">
<title>numericinference&#45;&gt;singlesamplettest</title>
<path fill="none" stroke="#000000" d="M667.1234,-71.8314C665.069,-64.0463 662.6219,-54.7729 660.3423,-46.1347"/>
<polygon fill="#000000" stroke="#000000" points="663.7127,-45.1892 657.7769,-36.4133 656.9444,-46.9753 663.7127,-45.1892"/>
</g>
<!-- twosamplettest -->
<g id="node18" class="node">
<title>twosamplettest</title>
<ellipse fill="none" stroke="#000000" cx="1009.9179" cy="-18" rx="63.3184" ry="18"/>
<text text-anchor="middle" x="1009.9179" y="-13.8" font-family="Times,serif" font-size="14.00" fill="#000000">twosamplettest</text>
</g>
<!-- numericinference&#45;&gt;twosamplettest -->
<g id="edge16" class="edge">
<title>numericinference&#45;&gt;twosamplettest</title>
<path fill="none" stroke="#000000" d="M725.4663,-77.8905C734.616,-75.8815 744.0332,-73.8513 752.9179,-72 834.9211,-54.913 856.1465,-54.1643 937.9179,-36 942.8234,-34.9103 947.9052,-33.7349 952.9959,-32.5252"/>
<polygon fill="#000000" stroke="#000000" points="953.8528,-35.9189 962.7523,-30.1699 952.2101,-29.1144 953.8528,-35.9189"/>
</g>
<!-- anova -->
<g id="node19" class="node">
<title>anova</title>
<ellipse fill="none" stroke="#000000" cx="897.9179" cy="-18" rx="31.4462" ry="18"/>
<text text-anchor="middle" x="897.9179" y="-13.8" font-family="Times,serif" font-size="14.00" fill="#000000">anova</text>
</g>
<!-- numericinference&#45;&gt;anova -->
<g id="edge17" class="edge">
<title>numericinference&#45;&gt;anova</title>
<path fill="none" stroke="#000000" d="M722.7404,-77.0733C760.2318,-67.0782 812.2687,-52.2398 856.9179,-36 859.2831,-35.1397 861.7058,-34.2092 864.1336,-33.2399"/>
<polygon fill="#000000" stroke="#000000" points="865.5262,-36.4514 873.4122,-29.3759 862.8351,-29.9893 865.5262,-36.4514"/>
</g>
<!-- categoricalinference&#45;&gt;proportionbinomial -->
<g id="edge12" class="edge">
<title>categoricalinference&#45;&gt;proportionbinomial</title>
<path fill="none" stroke="#000000" d="M471.0799,-73.1192C454.1161,-63.1892 432.4816,-50.5251 414.2288,-39.8405"/>
<polygon fill="#000000" stroke="#000000" points="415.9736,-36.8063 405.5753,-34.775 412.4373,-42.8474 415.9736,-36.8063"/>
</g>
<!-- chiquared -->
<g id="node15" class="node">
<title>chiquared</title>
<ellipse fill="none" stroke="#000000" cx="518.9179" cy="-18" rx="44.9423" ry="18"/>
<text text-anchor="middle" x="518.9179" y="-13.8" font-family="Times,serif" font-size="14.00" fill="#000000">chiquared</text>
</g>
<!-- categoricalinference&#45;&gt;chiquared -->
<g id="edge13" class="edge">
<title>categoricalinference&#45;&gt;chiquared</title>
<path fill="none" stroke="#000000" d="M504.7124,-71.8314C506.7984,-63.9266 509.2893,-54.4872 511.5985,-45.7365"/>
<polygon fill="#000000" stroke="#000000" points="515.0233,-46.4755 514.1907,-35.9134 508.255,-44.6894 515.0233,-46.4755"/>
</g>
<!-- chisquared -->
<g id="node16" class="node">
<title>chisquared</title>
<ellipse fill="none" stroke="#000000" cx="1436.9179" cy="-90" rx="48.3255" ry="18"/>
<text text-anchor="middle" x="1436.9179" y="-85.8" font-family="Times,serif" font-size="14.00" fill="#000000">chisquared</text>
</g>
<!-- chisquared&#45;&gt;multinomial -->
<g id="edge14" class="edge">
<title>chisquared&#45;&gt;multinomial</title>
<path fill="none" stroke="#000000" d="M1401.665,-77.6341C1394.2319,-75.4306 1386.3795,-73.396 1378.9179,-72 1150.7689,-29.315 1086.5351,-76.1019 857.9179,-36 853.1947,-35.1715 848.3186,-34.1277 843.4682,-32.9621"/>
<polygon fill="#000000" stroke="#000000" points="844.1615,-29.5266 833.6051,-30.4282 842.4197,-36.3065 844.1615,-29.5266"/>
</g>
<!-- stats -->
<g id="node22" class="node">
<title>stats</title>
<ellipse fill="none" stroke="#000000" cx="2102.9179" cy="-90" rx="27" ry="18"/>
<text text-anchor="middle" x="2102.9179" y="-85.8" font-family="Times,serif" font-size="14.00" fill="#000000">stats</text>
</g>
<!-- scientificmethod -->
<g id="node23" class="node">
<title>scientificmethod</title>
<ellipse fill="none" stroke="#000000" cx="2102.9179" cy="-18" rx="68.6219" ry="18"/>
<text text-anchor="middle" x="2102.9179" y="-13.8" font-family="Times,serif" font-size="14.00" fill="#000000">scientificmethod</text>
</g>
<!-- stats&#45;&gt;scientificmethod -->
<g id="edge20" class="edge">
<title>stats&#45;&gt;scientificmethod</title>
<path fill="none" stroke="#000000" d="M2102.9179,-61.5726C2102.9179,-56.6792 2102.9179,-51.5904 2102.9179,-46.6901"/>
<polygon fill="#000000" stroke="#000000" points="2099.418,-61.8313 2102.9179,-71.8314 2106.418,-61.8314 2099.418,-61.8313"/>
<polygon fill="#000000" stroke="#000000" points="2106.418,-46.4132 2102.9179,-36.4133 2099.418,-46.4133 2106.418,-46.4132"/>
</g>
<!-- logic -->
<g id="node24" class="node">
<title>logic</title>
<ellipse fill="none" stroke="#000000" cx="2054.9179" cy="-162" rx="27.5804" ry="18"/>
<text text-anchor="middle" x="2054.9179" y="-157.8" font-family="Times,serif" font-size="14.00" fill="#000000">logic</text>
</g>
<!-- logic&#45;&gt;stats -->
<g id="edge21" class="edge">
<title>logic&#45;&gt;stats</title>
<path fill="none" stroke="#000000" d="M2066.0507,-145.3008C2072.0483,-136.3043 2079.5681,-125.0247 2086.2493,-115.0029"/>
<polygon fill="#000000" stroke="#000000" points="2089.2106,-116.8706 2091.8455,-106.6087 2083.3862,-112.9877 2089.2106,-116.8706"/>
</g>
<!-- probability -->
<g id="node25" class="node">
<title>probability</title>
<ellipse fill="none" stroke="#000000" cx="2149.9179" cy="-162" rx="48.8273" ry="18"/>
<text text-anchor="middle" x="2149.9179" y="-157.8" font-family="Times,serif" font-size="14.00" fill="#000000">probability</text>
</g>
<!-- probability&#45;&gt;stats -->
<g id="edge22" class="edge">
<title>probability&#45;&gt;stats</title>
<path fill="none" stroke="#000000" d="M2138.2999,-144.2022C2132.5557,-135.4025 2125.5261,-124.6338 2119.2505,-115.0202"/>
<polygon fill="#000000" stroke="#000000" points="2122.1549,-113.0664 2113.7578,-106.6058 2116.2932,-116.8928 2122.1549,-113.0664"/>
</g>
<!-- distributions -->
<g id="node26" class="node">
<title>distributions</title>
<ellipse fill="none" stroke="#000000" cx="1252.9179" cy="-162" rx="54.1575" ry="18"/>
<text text-anchor="middle" x="1252.9179" y="-157.8" font-family="Times,serif" font-size="14.00" fill="#000000">distributions</text>
</g>
<!-- distributions&#45;&gt;chisquared -->
<g id="edge23" class="edge">
<title>distributions&#45;&gt;chisquared</title>
<path fill="none" stroke="#000000" d="M1288.3949,-148.1177C1318.4904,-136.3412 1361.7612,-119.4091 1393.8407,-106.8563"/>
<polygon fill="#000000" stroke="#000000" points="1395.3731,-110.0151 1403.4101,-103.1117 1392.8223,-103.4964 1395.3731,-110.0151"/>
</g>
<!-- normal -->
<g id="node27" class="node">
<title>normal</title>
<ellipse fill="none" stroke="#000000" cx="1538.9179" cy="-90" rx="35.3129" ry="18"/>
<text text-anchor="middle" x="1538.9179" y="-85.8" font-family="Times,serif" font-size="14.00" fill="#000000">normal</text>
</g>
<!-- distributions&#45;&gt;normal -->
<g id="edge24" class="edge">
<title>distributions&#45;&gt;normal</title>
<path fill="none" stroke="#000000" d="M1301.0665,-153.5657C1350.1431,-144.4222 1428.1823,-128.368 1493.9179,-108 1496.6305,-107.1595 1499.41,-106.2278 1502.1916,-105.2435"/>
<polygon fill="#000000" stroke="#000000" points="1503.415,-108.5228 1511.5629,-101.7505 1500.9702,-101.9636 1503.415,-108.5228"/>
</g>
<!-- bernoulli -->
<g id="node28" class="node">
<title>bernoulli</title>
<ellipse fill="none" stroke="#000000" cx="1633.9179" cy="-90" rx="42.0697" ry="18"/>
<text text-anchor="middle" x="1633.9179" y="-85.8" font-family="Times,serif" font-size="14.00" fill="#000000">bernoulli</text>
</g>
<!-- distributions&#45;&gt;bernoulli -->
<g id="edge25" class="edge">
<title>distributions&#45;&gt;bernoulli</title>
<path fill="none" stroke="#000000" d="M1304.6619,-156.4098C1370.1353,-148.6818 1486.0476,-132.812 1582.9179,-108 1586.2478,-107.1471 1589.6683,-106.17 1593.0854,-105.1217"/>
<polygon fill="#000000" stroke="#000000" points="1594.1983,-108.4403 1602.6284,-102.0228 1592.0363,-101.7825 1594.1983,-108.4403"/>
</g>
<!-- binomial -->
<g id="node29" class="node">
<title>binomial</title>
<ellipse fill="none" stroke="#000000" cx="803.9179" cy="-90" rx="41.5938" ry="18"/>
<text text-anchor="middle" x="803.9179" y="-85.8" font-family="Times,serif" font-size="14.00" fill="#000000">binomial</text>
</g>
<!-- distributions&#45;&gt;binomial -->
<g id="edge26" class="edge">
<title>distributions&#45;&gt;binomial</title>
<path fill="none" stroke="#000000" d="M1199.4867,-158.239C1122.488,-152.0355 976.2439,-137.3145 854.9179,-108 851.5296,-107.1813 848.0514,-106.2215 844.5808,-105.1788"/>
<polygon fill="#000000" stroke="#000000" points="845.4916,-101.7953 834.9003,-102.0687 843.3505,-108.4598 845.4916,-101.7953"/>
</g>
<!-- geometric -->
<g id="node30" class="node">
<title>geometric</title>
<ellipse fill="none" stroke="#000000" cx="908.9179" cy="-90" rx="45.4269" ry="18"/>
<text text-anchor="middle" x="908.9179" y="-85.8" font-family="Times,serif" font-size="14.00" fill="#000000">geometric</text>
</g>
<!-- distributions&#45;&gt;geometric -->
<g id="edge27" class="edge">
<title>distributions&#45;&gt;geometric</title>
<path fill="none" stroke="#000000" d="M1202.9435,-154.8369C1144.785,-146.0083 1046.0939,-129.4976 962.9179,-108 959.5139,-107.1202 956.013,-106.1373 952.508,-105.0969"/>
<polygon fill="#000000" stroke="#000000" points="953.2841,-101.6731 942.696,-102.0506 951.2086,-108.3583 953.2841,-101.6731"/>
</g>
<!-- negativebinomial -->
<g id="node31" class="node">
<title>negativebinomial</title>
<ellipse fill="none" stroke="#000000" cx="1043.9179" cy="-90" rx="71.5031" ry="18"/>
<text text-anchor="middle" x="1043.9179" y="-85.8" font-family="Times,serif" font-size="14.00" fill="#000000">negativebinomial</text>
</g>
<!-- distributions&#45;&gt;negativebinomial -->
<g id="edge28" class="edge">
<title>distributions&#45;&gt;negativebinomial</title>
<path fill="none" stroke="#000000" d="M1215.0696,-148.9613C1181.7027,-137.4665 1132.7761,-120.6114 1095.7713,-107.8634"/>
<polygon fill="#000000" stroke="#000000" points="1096.7508,-104.499 1086.1561,-104.551 1094.4708,-111.1173 1096.7508,-104.499"/>
</g>
<!-- poisson -->
<g id="node32" class="node">
<title>poisson</title>
<ellipse fill="none" stroke="#000000" cx="1170.9179" cy="-90" rx="37.2681" ry="18"/>
<text text-anchor="middle" x="1170.9179" y="-85.8" font-family="Times,serif" font-size="14.00" fill="#000000">poisson</text>
</g>
<!-- distributions&#45;&gt;poisson -->
<g id="edge29" class="edge">
<title>distributions&#45;&gt;poisson</title>
<path fill="none" stroke="#000000" d="M1233.485,-144.937C1222.5566,-135.3413 1208.7704,-123.2363 1196.9219,-112.8328"/>
<polygon fill="#000000" stroke="#000000" points="1198.9115,-109.922 1189.0877,-105.954 1194.2928,-115.1821 1198.9115,-109.922"/>
</g>
<!-- F -->
<g id="node33" class="node">
<title>F</title>
<ellipse fill="none" stroke="#000000" cx="1252.9179" cy="-90" rx="27" ry="18"/>
<text text-anchor="middle" x="1252.9179" y="-85.8" font-family="Times,serif" font-size="14.00" fill="#000000">F</text>
</g>
<!-- distributions&#45;&gt;F -->
<g id="edge30" class="edge">
<title>distributions&#45;&gt;F</title>
<path fill="none" stroke="#000000" d="M1252.9179,-143.8314C1252.9179,-136.131 1252.9179,-126.9743 1252.9179,-118.4166"/>
<polygon fill="#000000" stroke="#000000" points="1256.418,-118.4132 1252.9179,-108.4133 1249.418,-118.4133 1256.418,-118.4132"/>
</g>
<!-- logistic -->
<g id="node34" class="node">
<title>logistic</title>
<ellipse fill="none" stroke="#000000" cx="1333.9179" cy="-90" rx="36.2905" ry="18"/>
<text text-anchor="middle" x="1333.9179" y="-85.8" font-family="Times,serif" font-size="14.00" fill="#000000">logistic</text>
</g>
<!-- distributions&#45;&gt;logistic -->
<g id="edge31" class="edge">
<title>distributions&#45;&gt;logistic</title>
<path fill="none" stroke="#000000" d="M1272.1138,-144.937C1282.9849,-135.2738 1296.719,-123.0657 1308.4779,-112.6133"/>
<polygon fill="#000000" stroke="#000000" points="1311.0949,-114.97 1316.2438,-105.7103 1306.4443,-109.7381 1311.0949,-114.97"/>
</g>
</g>
</svg>
